<svg width="24" height="24" viewBox="0 0 24 24" fill="none" xmlns="http://www.w3.org/2000/svg">
<circle cx="12" cy="12" r="12" fill="#FFC22B"/>
<g clip-path="url(#clip0_0_164)">
<path d="M15.8572 8.14285C15.936 8.13901 16.015 8.13708 16.0943 8.13708C16.6149 8.13708 17.1227 8.22018 17.6026 8.37997C18.1051 7.70503 18.3768 6.89006 18.3768 6.03333C18.3768 5.80688 18.1932 5.62317 17.9667 5.62317C17.0885 5.62317 16.2766 5.91209 15.6208 6.3998C15.78 6.87906 15.8629 7.38609 15.8629 7.90584C15.8629 7.98499 15.861 8.06403 15.8572 8.14285Z" fill="white"/>
<path d="M8.99828 14.9965C8.9015 14.8995 8.81018 14.7993 8.72356 14.6964L5.12016 18.2999C4.95995 18.46 4.95995 18.7197 5.12016 18.8798C5.20027 18.9599 5.30516 19 5.41016 19C5.51515 19 5.62004 18.9599 5.70015 18.8798L9.30344 15.2766C9.1993 15.1888 9.09825 15.0965 9.00095 14.9991C9.00009 14.9982 8.99913 14.9973 8.99828 14.9965Z" fill="white"/>
<path d="M13.8805 8.71928C13.9337 8.95587 13.968 9.19513 13.9848 9.43503L15.0108 8.40921C15.0318 8.24344 15.0426 8.07542 15.0426 7.9057C15.0426 6.8535 14.6329 5.86421 13.8889 5.12016C13.8118 5.04315 13.7076 5 13.5988 5C13.49 5 13.3857 5.04315 13.3088 5.12016C12.9612 5.46773 12.6867 5.8688 12.4926 6.30481C12.5317 6.33546 12.5694 6.36826 12.605 6.40393C13.2422 7.04117 13.6832 7.84183 13.8805 8.71928Z" fill="white"/>
<path d="M18.8798 10.1108C18.1357 9.36676 17.1464 8.95703 16.0942 8.95703C15.9245 8.95703 15.7564 8.96782 15.5907 8.98897L14.5671 10.0124C15.7116 10.0919 16.7769 10.5755 17.596 11.3947C17.6317 11.4304 17.6645 11.468 17.6951 11.5069C18.1288 11.314 18.5279 11.0414 18.8742 10.6964C18.9142 10.6579 18.9466 10.6111 18.9687 10.5578C19.0322 10.4045 18.9971 10.2282 18.8798 10.1108Z" fill="white"/>
<path d="M12.1232 11.2968L13.1436 10.2765C13.2941 9.10634 12.9217 7.88121 12.0249 6.98442C11.9479 6.90752 11.8435 6.86426 11.7348 6.86426C11.6261 6.86426 11.5216 6.90752 11.4447 6.98453C11.0923 7.3369 10.821 7.74001 10.6304 8.17056C10.6688 8.20079 10.7059 8.23315 10.7409 8.2683C11.5601 9.08733 12.0437 10.1523 12.1232 11.2968Z" fill="white"/>
<path d="M14.2305 10.8212C14.0607 10.8212 13.8926 10.832 13.7268 10.8532L12.7031 11.8766C13.8477 11.9561 14.9128 12.4397 15.732 13.2588C15.7677 13.2944 15.8007 13.3322 15.8313 13.3712C16.2672 13.1773 16.6683 12.9027 17.016 12.5551C17.0929 12.4782 17.1361 12.3738 17.1361 12.2651C17.1361 12.1563 17.0929 12.052 17.016 11.9751C16.2719 11.231 15.2827 10.8212 14.2305 10.8212Z" fill="white"/>
<path d="M11.315 11.6332C11.315 10.5809 10.9052 9.59164 10.1611 8.8477C10.081 8.76759 9.97602 8.72754 9.87114 8.72754C9.76614 8.72754 9.66114 8.76759 9.58114 8.8477C8.14314 10.2856 8.0515 12.5678 9.306 14.1135L11.2831 12.1364C11.3041 11.9708 11.315 11.8029 11.315 11.6332Z" fill="white"/>
<path d="M12.3665 12.6855C12.1967 12.6855 12.0285 12.6964 11.8627 12.7175L9.88574 14.6945C10.5853 15.2637 11.4519 15.5732 12.3664 15.5733H12.3668C13.4187 15.5733 14.4079 15.1636 15.152 14.4195C15.229 14.3426 15.2721 14.2382 15.2721 14.1294C15.2721 14.0207 15.229 13.9163 15.152 13.8394C14.4079 13.0953 13.4187 12.6855 12.3665 12.6855Z" fill="white"/>
</g>
<defs>
<clipPath id="clip0_0_164">
<rect width="14" height="14" fill="white" transform="translate(5 5)"/>
</clipPath>
</defs>
</svg>
